<?xml version="1.0" encoding="utf-8"?>
<!DOCTYPE svg PUBLIC "-//W3C//DTD SVG 20010904//EN" "http://www.w3.org/TR/2001/REC-SVG-20010904/DTD/svg10.dtd">
<svg version="1.0" xmlns="http://www.w3.org/2000/svg" width="602pt" height="282pt" viewBox="0 0 602 282" style="" preserveAspectRatio="xMidYMid meet">
<g fill="#FFFFFFFF" stroke="#FFFFFFFF">
<path d="M 1.000 141.000 L 1.000 281.000 301.000 281.000 L 601.000 281.000 601.000 141.000 L 601.000 1.000 301.000 1.000 L 1.000 1.000 1.000 141.000 M 155.382 69.330 C 157.097 71.162 162.027 77.907 166.338 84.319 C 170.650 90.731 175.375 97.253 176.838 98.811 C 180.847 103.077 187.597 106.573 196.500 108.994 C 220.911 115.631 224.942 117.382 225.063 121.405 C 225.124 123.395 225.173 123.384 226.052 121.195 C 226.864 119.170 227.556 118.927 231.738 119.195 C 235.804 119.455 236.547 119.829 236.820 121.750 C 237.101 123.733 237.719 124.000 242.034 124.000 C 245.946 124.000 247.150 123.588 248.027 121.950 C 248.954 120.218 249.929 119.946 254.312 120.200 C 258.517 120.443 259.447 120.818 259.223 122.177 C 259.044 123.262 259.738 123.968 261.190 124.177 C 264.058 124.590 265.952 130.246 264.175 133.092 C 263.529 134.126 262.990 137.116 262.978 139.736 C 262.963 142.871 262.299 145.355 261.036 147.000 L 259.117 149.500 232.309 150.032 L 205.500 150.564 231.795 150.782 C 257.893 150.998 258.108 151.018 260.430 153.340 C 262.883 155.792 264.829 163.578 263.354 165.036 C 262.884 165.500 260.250 166.020 257.500 166.190 L 252.500 166.500 258.500 170.000 L 264.500 173.500 257.000 173.760 C 249.705 174.013 249.296 173.899 242.025 169.552 L 234.551 165.083 226.302 169.579 L 218.053 174.076 208.777 173.788 L 199.500 173.500 211.742 167.000 C 220.236 162.490 223.986 159.964 223.992 158.750 C 223.999 157.296 224.932 157.000 229.500 157.000 C 234.700 157.000 235.000 157.136 235.000 159.500 C 235.000 161.842 235.325 162.000 240.132 162.000 C 243.586 162.000 246.365 162.681 248.632 164.082 L 252.000 166.163 252.000 161.601 C 252.000 157.700 251.674 156.958 249.750 156.485 C 248.513 156.180 239.175 156.059 229.000 156.216 L 210.500 156.500 210.195 161.250 L 209.890 166.000 204.399 166.000 L 198.908 166.000 199.064 185.360 C 199.168 198.215 198.837 205.435 198.081 206.848 C 196.170 210.419 192.658 210.508 183.711 207.209 C 159.935 198.442 153.789 196.739 148.049 197.327 C 144.997 197.639 134.850 200.614 125.500 203.938 C 116.150 207.262 107.998 209.986 107.385 209.991 C 106.772 209.996 105.020 209.017 103.493 207.816 L 100.716 205.631 101.250 186.750 C 102.007 160.023 102.048 160.148 85.110 138.278 C 70.060 118.847 70.138 118.669 97.000 110.964 C 112.338 106.564 119.293 103.436 123.307 99.131 C 124.656 97.684 130.116 90.095 135.440 82.266 C 147.690 64.252 149.518 63.067 155.382 69.330 M 392.418 119.607 C 393.288 119.941 394.000 120.841 394.000 121.607 C 394.000 122.729 396.627 123.000 407.500 123.000 L 421.000 123.000 421.000 127.500 L 421.000 132.000 407.500 132.000 C 394.667 132.000 394.000 132.099 394.000 134.000 C 394.000 135.897 394.667 136.000 407.000 136.000 L 420.000 136.000 420.000 140.560 C 420.000 144.679 419.501 145.647 414.837 150.579 C 411.997 153.582 408.169 156.969 406.330 158.105 C 402.360 160.558 402.676 161.534 407.739 162.465 C 409.808 162.845 413.638 163.609 416.250 164.161 L 421.000 165.166 421.000 169.583 C 421.000 173.670 420.806 174.000 418.407 174.000 C 414.841 174.000 397.262 170.357 392.184 168.565 C 388.373 167.220 387.548 167.264 382.264 169.085 C 376.430 171.095 361.718 174.000 357.369 174.000 C 355.275 174.000 355.000 173.539 355.000 170.035 C 355.000 165.298 355.818 164.751 365.500 163.000 C 369.350 162.304 372.857 161.531 373.293 161.282 C 373.729 161.033 372.038 159.473 369.536 157.816 C 367.034 156.159 363.385 152.935 361.427 150.652 L 357.868 146.500 363.983 146.201 C 369.558 145.928 370.514 146.198 374.799 149.259 C 377.385 151.106 381.404 153.442 383.731 154.452 C 387.734 156.188 388.197 156.196 392.338 154.615 C 394.745 153.696 399.099 151.164 402.014 148.990 L 407.313 145.036 382.407 144.768 L 357.500 144.500 357.500 140.500 L 357.500 136.500 370.250 136.220 C 382.110 135.960 383.000 135.805 383.000 133.998 C 383.000 132.183 382.101 132.038 369.250 131.778 L 355.500 131.500 355.193 127.250 L 354.885 123.000 368.826 123.000 C 381.926 123.000 382.798 122.879 383.290 121.000 C 383.688 119.479 384.654 119.000 387.325 119.000 C 389.256 119.000 391.548 119.273 392.418 119.607 M 308.807 123.750 L 309.115 128.000 300.557 128.000 C 293.617 128.000 292.000 128.284 292.000 129.500 C 292.000 130.700 293.500 131.000 299.500 131.000 L 307.000 131.000 307.000 149.050 C 307.000 167.812 306.231 171.930 302.455 173.379 C 301.565 173.720 296.373 174.000 290.918 174.000 L 281.000 174.000 281.000 164.000 C 281.000 154.768 280.851 154.000 279.059 154.000 C 277.991 154.000 276.904 153.654 276.643 153.231 C 276.382 152.809 277.023 147.746 278.068 141.981 C 280.443 128.872 280.441 128.349 278.000 127.710 C 276.581 127.339 276.000 126.346 276.000 124.294 C 276.000 119.244 277.099 118.926 293.475 119.225 L 308.500 119.500 308.807 123.750 M 336.679 120.981 C 340.010 123.139 341.000 126.360 341.000 135.047 C 341.000 139.682 341.417 143.000 342.000 143.000 C 342.615 143.000 343.000 147.955 343.000 155.865 C 343.000 167.366 342.780 169.010 340.927 171.365 C 339.021 173.788 338.259 174.000 331.444 174.000 L 324.032 174.000 325.678 170.548 C 326.650 168.510 328.180 166.974 329.412 166.798 C 331.294 166.529 331.529 165.735 331.792 158.750 L 332.084 151.000 320.542 151.000 C 307.223 151.000 308.063 151.996 310.841 139.500 L 312.620 131.500 318.432 131.196 L 324.243 130.893 323.541 135.574 C 323.155 138.149 322.602 140.873 322.313 141.628 C 321.926 142.634 322.747 143.000 325.393 143.000 L 329.000 143.000 329.000 135.538 L 329.000 128.075 319.750 127.788 L 310.500 127.500 310.178 124.690 C 309.575 119.429 311.201 118.755 323.457 119.184 C 330.678 119.437 335.254 120.059 336.679 120.981 M 495.000 123.500 C 495.000 126.567 495.310 127.000 497.500 127.000 C 499.750 127.000 500.000 127.400 500.000 131.000 C 500.000 134.572 499.739 135.000 497.564 135.000 L 495.129 135.000 494.814 152.398 C 494.420 174.215 494.544 174.000 482.345 174.000 C 477.755 174.000 474.000 173.753 474.000 173.450 C 474.000 173.148 474.672 171.602 475.493 170.014 C 476.597 167.878 477.832 167.046 480.243 166.814 L 483.500 166.500 483.775 150.777 L 484.051 135.054 469.275 134.777 L 454.500 134.500 454.190 130.750 L 453.879 127.000 468.940 127.000 L 484.000 127.000 484.000 123.500 L 484.000 120.000 489.500 120.000 L 495.000 120.000 495.000 123.500 M 451.458 125.500 C 449.096 130.839 449.083 131.000 451.013 131.000 C 452.934 131.000 453.000 131.712 453.000 152.500 L 453.000 174.000 447.000 174.000 L 441.000 174.000 441.000 156.500 L 441.000 139.000 438.059 139.000 C 436.441 139.000 434.872 138.601 434.570 138.114 C 434.269 137.627 435.839 133.352 438.060 128.614 L 442.096 120.000 447.993 120.000 L 453.890 120.000 451.458 125.500 M 470.784 149.250 C 475.330 164.272 475.397 163.500 469.546 163.500 L 464.593 163.500 461.378 152.022 C 459.610 145.710 458.378 140.197 458.641 139.772 C 458.903 139.348 461.045 139.000 463.400 139.000 L 467.683 139.000 470.784 149.250 M 328.500 160.500 L 328.500 164.500 318.750 164.786 L 309.000 165.072 309.000 160.500 L 309.000 155.928 318.750 156.214 L 328.500 156.500 328.500 160.500 M 328.551 190.909 L 330.667 196.172 332.693 190.836 C 333.839 187.817 335.431 185.360 336.359 185.177 C 337.771 184.898 338.000 185.978 338.000 192.927 C 338.000 197.642 337.584 201.000 337.000 201.000 C 336.450 201.000 335.956 198.413 335.902 195.250 L 335.804 189.500 334.106 195.000 C 332.023 201.748 330.150 202.047 327.833 196.000 L 326.109 191.500 326.054 196.333 C 325.970 203.792 323.572 201.854 323.199 194.026 C 322.686 183.283 324.954 181.962 328.551 190.909 M 369.291 190.180 L 372.500 195.360 373.000 190.656 C 373.771 183.398 375.466 185.120 375.792 193.493 C 376.156 202.855 374.506 203.470 369.741 195.750 L 366.500 190.500 366.195 195.815 C 365.761 203.407 363.584 202.108 363.199 194.026 C 362.688 183.327 364.383 182.257 369.291 190.180 M 413.066 186.035 C 414.302 186.697 415.000 188.127 415.000 190.000 C 415.000 193.248 412.745 195.000 408.566 195.000 C 406.382 195.000 406.000 195.446 406.000 198.000 C 406.000 199.650 405.550 201.000 405.000 201.000 C 404.417 201.000 404.000 197.667 404.000 193.000 L 404.000 185.000 407.566 185.000 C 409.527 185.000 412.002 185.466 413.066 186.035 M 319.429 186.571 C 321.411 188.554 321.441 190.000 319.500 190.000 C 318.675 190.000 318.000 189.520 318.000 188.934 C 318.000 187.525 312.762 188.171 312.281 189.640 C 312.075 190.266 313.564 191.171 315.588 191.650 C 320.536 192.820 322.542 195.781 320.430 198.796 C 317.647 202.769 309.000 200.978 309.000 196.429 C 309.000 194.324 310.765 194.692 312.032 197.060 C 312.809 198.511 313.927 199.028 315.817 198.810 C 319.569 198.376 319.212 195.730 315.228 194.442 C 313.429 193.861 311.222 192.650 310.324 191.752 C 308.814 190.242 308.817 189.928 310.369 187.560 C 312.320 184.582 316.935 184.078 319.429 186.571 M 308.442 185.907 C 308.751 186.405 306.974 189.304 304.494 192.349 L 299.984 197.884 304.242 198.192 C 310.706 198.660 309.329 200.461 302.250 200.798 C 298.020 200.999 296.000 200.722 296.000 199.941 C 296.000 199.306 297.847 196.472 300.104 193.643 L 304.209 188.500 300.604 188.190 C 298.278 187.989 297.000 187.369 297.000 186.440 C 297.000 185.363 298.373 185.000 302.441 185.000 C 305.434 185.000 308.134 185.408 308.442 185.907 M 426.010 190.045 C 428.544 196.533 429.378 201.000 428.055 201.000 C 427.447 201.000 426.523 199.875 426.000 198.500 C 424.738 195.181 421.683 195.292 419.165 198.748 C 416.137 202.905 415.546 200.830 417.937 194.438 C 422.080 183.365 423.170 182.772 426.010 190.045 M 381.797 187.695 L 383.760 190.391 386.295 187.445 C 389.608 183.596 390.833 184.916 388.081 189.369 L 385.934 192.843 387.963 196.171 C 390.343 200.076 390.479 201.000 388.669 201.000 C 387.937 201.000 386.736 199.875 386.000 198.500 C 385.264 197.125 384.298 196.000 383.854 196.000 C 383.410 196.000 382.309 197.125 381.408 198.500 C 379.706 201.098 378.000 201.801 378.000 199.904 C 378.000 199.302 378.957 197.465 380.127 195.822 L 382.254 192.835 380.127 189.958 C 378.957 188.376 378.000 186.613 378.000 186.040 C 378.000 184.166 379.795 184.948 381.797 187.695 M 434.133 188.500 C 435.268 190.425 436.334 192.000 436.500 192.000 C 436.666 192.000 437.747 190.399 438.902 188.441 C 440.057 186.484 441.471 185.173 442.045 185.528 C 442.705 185.936 442.154 187.768 440.544 190.515 C 439.145 192.902 438.000 196.239 438.000 197.928 C 438.000 199.992 437.508 201.000 436.500 201.000 C 435.481 201.000 434.990 199.958 434.969 197.750 C 434.952 195.963 433.829 192.700 432.474 190.500 C 429.767 186.105 429.478 185.000 431.034 185.000 C 431.602 185.000 432.997 186.575 434.133 188.500 M 349.000 192.059 L 349.000 198.000 352.500 198.000 C 354.944 198.000 356.000 198.452 356.000 199.500 C 356.000 200.633 354.778 201.000 351.000 201.000 L 346.000 201.000 346.000 193.667 C 346.000 189.633 346.288 186.046 346.639 185.694 C 348.141 184.193 349.000 186.510 349.000 192.059 M 360.792 193.330 C 361.035 199.700 360.823 201.000 359.542 201.000 C 358.280 201.000 358.000 199.533 358.000 192.917 C 358.000 186.896 358.319 184.939 359.250 185.247 C 360.069 185.518 360.601 188.303 360.792 193.330 M 395.000 193.559 C 395.000 199.507 394.699 201.000 393.500 201.000 C 392.303 201.000 392.000 199.519 392.000 193.667 C 392.000 189.633 392.288 186.046 392.639 185.694 C 394.227 184.106 395.000 186.683 395.000 193.559 "/></g>
<g fill="#4F80FEFF" stroke="#4F80FEFF">
<path d="M 145.702 69.383 C 144.491 70.693 139.900 77.097 135.500 83.613 C 120.927 105.196 120.953 105.178 89.500 114.071 C 77.645 117.422 75.994 118.427 76.029 122.276 C 76.051 124.828 78.253 128.315 86.588 139.000 C 92.380 146.425 97.937 154.075 98.936 156.000 C 102.102 162.097 102.800 168.744 102.257 187.641 L 101.736 205.781 104.521 207.606 C 107.305 209.430 107.315 209.428 126.903 202.700 C 137.681 198.998 148.125 195.976 150.111 195.985 C 153.824 196.000 160.030 197.856 180.000 204.922 C 192.841 209.465 194.186 209.671 196.429 207.429 C 197.742 206.115 198.000 202.862 198.000 187.582 C 198.000 177.531 198.292 165.188 198.650 160.154 L 199.299 151.000 202.400 150.850 C 205.421 150.704 205.430 150.690 202.750 150.284 C 200.018 149.870 200.000 149.815 200.000 141.993 C 200.000 137.662 199.550 133.840 199.000 133.500 C 198.450 133.160 198.000 130.884 198.000 128.441 C 198.000 124.139 198.097 124.000 201.107 124.000 C 203.458 124.000 204.074 123.635 203.638 122.500 C 203.171 121.282 204.068 121.000 208.409 121.000 C 211.941 121.000 214.178 121.509 215.000 122.500 C 215.765 123.422 217.959 124.000 220.690 124.000 C 224.833 124.000 225.089 123.847 224.460 121.750 C 224.089 120.513 223.271 118.965 222.643 118.311 C 222.014 117.657 214.300 115.054 205.500 112.527 C 187.726 107.423 180.713 104.428 176.832 100.284 C 175.398 98.753 170.299 91.650 165.502 84.500 C 153.316 66.340 150.501 64.191 145.702 69.383 M 175.000 121.500 C 175.000 122.633 176.222 123.000 180.000 123.000 C 184.667 123.000 185.000 123.167 185.000 125.500 C 185.000 127.833 184.667 128.000 180.000 128.000 C 176.222 128.000 175.000 128.367 175.000 129.500 C 175.000 130.652 176.278 131.000 180.500 131.000 C 185.753 131.000 186.000 131.117 186.000 133.594 C 186.000 135.346 185.351 136.357 184.000 136.710 C 181.664 137.321 181.420 138.819 183.399 140.390 C 184.168 141.000 185.099 142.513 185.466 143.750 C 186.097 145.872 185.851 146.000 181.140 146.000 C 176.935 146.000 175.817 145.583 174.073 143.365 C 172.933 141.916 172.000 139.891 172.000 138.865 C 172.000 137.585 171.278 137.000 169.699 137.000 C 167.963 137.000 166.862 138.104 165.212 141.500 C 163.051 145.948 162.968 146.000 157.993 146.000 L 152.959 146.000 154.980 142.040 C 157.450 137.198 157.449 137.351 155.000 136.710 C 153.649 136.357 153.000 135.346 153.000 133.594 C 153.000 131.090 153.209 131.000 159.000 131.000 C 163.667 131.000 165.000 130.667 165.000 129.500 C 165.000 128.337 163.681 128.000 159.126 128.000 L 153.253 128.000 153.912 124.750 C 154.521 121.748 154.905 121.476 158.937 121.185 C 161.751 120.982 163.598 121.337 164.136 122.185 C 164.765 123.177 164.973 123.070 164.985 121.750 C 164.997 120.319 165.911 120.000 170.000 120.000 C 173.778 120.000 175.000 120.367 175.000 121.500 M 141.000 121.500 C 141.000 122.633 142.222 123.000 146.000 123.000 C 150.667 123.000 151.000 123.167 151.000 125.500 C 151.000 127.833 150.667 128.000 146.000 128.000 C 142.222 128.000 141.000 128.367 141.000 129.500 C 141.000 130.652 142.278 131.000 146.500 131.000 C 151.944 131.000 152.000 131.030 152.000 134.000 C 152.000 136.333 151.556 137.000 150.000 137.000 C 148.900 137.000 148.000 137.450 148.000 138.000 C 148.000 138.550 148.900 139.900 150.000 141.000 C 153.468 144.468 152.596 146.000 147.155 146.000 C 141.817 146.000 139.638 144.432 138.470 139.750 C 137.384 135.402 134.366 136.193 131.788 141.500 C 129.648 145.905 129.500 146.000 124.801 146.000 C 122.160 146.000 120.000 145.753 120.000 145.452 C 120.000 145.150 120.859 143.125 121.909 140.952 C 123.788 137.063 123.788 137.000 121.909 137.000 C 120.455 137.000 120.000 136.286 120.000 134.000 C 120.000 131.030 120.056 131.000 125.500 131.000 C 129.722 131.000 131.000 130.652 131.000 129.500 C 131.000 128.348 129.722 128.000 125.500 128.000 C 119.783 128.000 119.444 127.674 120.618 123.299 C 121.111 121.460 122.055 121.037 126.354 120.734 C 138.935 119.845 141.000 119.953 141.000 121.500 M 179.365 150.073 C 181.727 151.931 182.000 152.816 182.000 158.625 L 182.000 165.105 176.750 164.802 L 171.500 164.500 171.198 159.250 L 170.895 154.000 153.000 154.000 L 135.105 154.000 134.802 159.250 L 134.500 164.500 128.750 164.800 L 123.000 165.100 123.000 156.550 L 123.000 148.000 149.865 148.000 C 175.530 148.000 176.848 148.093 179.365 150.073 M 160.000 159.847 C 160.000 163.886 159.625 164.875 157.750 165.780 C 155.893 166.675 156.723 166.876 162.500 166.929 C 167.919 166.978 171.382 167.727 177.837 170.246 L 186.173 173.500 175.963 173.786 C 166.410 174.054 165.341 173.880 159.365 171.083 L 152.977 168.094 146.395 171.047 C 140.460 173.710 138.816 173.995 129.657 173.948 L 119.500 173.895 133.250 166.941 C 145.380 160.805 147.000 159.692 147.000 157.493 C 147.000 155.091 147.238 155.000 153.500 155.000 L 160.000 155.000 160.000 159.847 "/></g>
<g fill="#223256FF" stroke="#223256FF">
<path d="M 383.290 121.000 C 382.798 122.879 381.926 123.000 368.826 123.000 L 354.885 123.000 355.193 127.250 L 355.500 131.500 369.250 131.778 C 382.101 132.038 383.000 132.183 383.000 133.998 C 383.000 135.805 382.110 135.960 370.250 136.220 L 357.500 136.500 357.500 140.500 L 357.500 144.500 382.407 144.768 L 407.313 145.036 402.014 148.990 C 399.099 151.164 394.745 153.696 392.338 154.615 C 388.197 156.196 387.734 156.188 383.731 154.452 C 381.404 153.442 377.385 151.106 374.799 149.259 C 370.514 146.198 369.558 145.928 363.983 146.201 L 357.868 146.500 361.427 150.652 C 363.385 152.935 367.034 156.159 369.536 157.816 C 372.038 159.473 373.729 161.033 373.293 161.282 C 372.857 161.531 369.350 162.304 365.500 163.000 C 355.818 164.751 355.000 165.298 355.000 170.035 C 355.000 173.539 355.275 174.000 357.369 174.000 C 361.718 174.000 376.430 171.095 382.264 169.085 C 387.548 167.264 388.373 167.220 392.184 168.565 C 397.262 170.357 414.841 174.000 418.407 174.000 C 420.806 174.000 421.000 173.670 421.000 169.583 L 421.000 165.166 416.250 164.161 C 413.638 163.609 409.808 162.845 407.739 162.465 C 402.676 161.534 402.360 160.558 406.330 158.105 C 408.169 156.969 411.997 153.582 414.837 150.579 C 419.501 145.647 420.000 144.679 420.000 140.560 L 420.000 136.000 407.000 136.000 C 394.667 136.000 394.000 135.897 394.000 134.000 C 394.000 132.099 394.667 132.000 407.500 132.000 L 421.000 132.000 421.000 127.500 L 421.000 123.000 407.500 123.000 C 396.627 123.000 394.000 122.729 394.000 121.607 C 394.000 119.852 391.820 119.000 387.325 119.000 C 384.654 119.000 383.688 119.479 383.290 121.000 "/></g>
<g fill="#223256FF" stroke="#223256FF">
<path d="M 226.021 121.445 C 225.182 123.651 224.448 124.000 220.647 124.000 C 217.954 124.000 215.762 123.418 215.000 122.500 C 214.178 121.509 211.941 121.000 208.409 121.000 C 204.068 121.000 203.171 121.282 203.638 122.500 C 204.074 123.635 203.458 124.000 201.107 124.000 C 198.113 124.000 198.000 124.156 198.000 128.300 C 198.000 130.665 198.428 133.028 198.951 133.551 C 199.474 134.074 200.037 137.877 200.201 142.001 L 200.500 149.500 229.283 149.765 L 258.067 150.031 260.533 147.369 C 262.453 145.298 263.000 143.629 263.000 139.840 C 263.000 137.163 263.529 134.126 264.175 133.092 C 265.952 130.246 264.058 124.590 261.190 124.177 C 259.738 123.968 259.044 123.262 259.223 122.177 C 259.447 120.818 258.517 120.443 254.312 120.200 C 249.929 119.946 248.954 120.218 248.027 121.950 C 247.150 123.588 245.946 124.000 242.034 124.000 C 237.719 124.000 237.101 123.733 236.820 121.750 C 236.547 119.830 235.804 119.455 231.746 119.195 C 227.439 118.919 226.901 119.130 226.021 121.445 M 253.362 132.500 C 253.860 133.798 251.579 134.000 236.410 134.000 C 222.678 134.000 219.035 133.729 219.588 132.750 C 220.152 131.750 220.024 131.750 218.947 132.750 C 216.954 134.600 209.000 134.400 209.000 132.500 C 209.000 131.212 212.099 131.000 230.893 131.000 C 249.431 131.000 252.874 131.230 253.362 132.500 M 251.521 141.966 C 250.704 143.288 211.000 143.394 211.000 142.075 C 211.000 141.541 219.712 141.103 231.580 141.040 C 245.525 140.967 251.954 141.265 251.521 141.966 "/></g>
<g fill="#223256FF" stroke="#223256FF">
<path d="M 277.225 120.175 C 275.193 122.207 275.697 127.108 278.000 127.710 C 280.441 128.349 280.443 128.872 278.068 141.981 C 277.023 147.746 276.382 152.809 276.643 153.231 C 276.904 153.654 277.991 154.000 279.059 154.000 C 280.851 154.000 281.000 154.768 281.000 164.000 L 281.000 174.000 290.918 174.000 C 296.373 174.000 301.565 173.720 302.455 173.379 C 306.231 171.930 307.000 167.812 307.000 149.050 L 307.000 131.000 299.500 131.000 C 293.500 131.000 292.000 130.700 292.000 129.500 C 292.000 128.284 293.617 128.000 300.557 128.000 L 309.115 128.000 308.807 123.750 L 308.500 119.500 293.475 119.225 C 282.635 119.027 278.108 119.292 277.225 120.175 M 296.000 152.500 C 296.000 165.333 295.901 166.000 294.000 166.000 C 292.099 166.000 292.000 165.333 292.000 152.500 C 292.000 139.667 292.099 139.000 294.000 139.000 C 295.901 139.000 296.000 139.667 296.000 152.500 "/></g>
<g fill="#223256FF" stroke="#223256FF">
<path d="M 311.134 120.338 C 310.431 121.186 310.001 123.144 310.178 124.690 L 310.500 127.500 319.750 127.788 L 329.000 128.075 329.000 135.538 L 329.000 143.000 325.393 143.000 C 322.747 143.000 321.926 142.634 322.313 141.628 C 322.602 140.873 323.155 138.149 323.541 135.574 L 324.243 130.893 318.432 131.196 L 312.620 131.500 310.841 139.500 C 308.063 151.996 307.223 151.000 320.542 151.000 L 332.084 151.000 331.792 158.750 C 331.529 165.735 331.294 166.529 329.412 166.798 C 328.180 166.974 326.650 168.510 325.678 170.548 L 324.032 174.000 331.444 174.000 C 338.259 174.000 339.021 173.788 340.927 171.365 C 342.780 169.010 343.000 167.366 343.000 155.865 C 343.000 147.955 342.615 143.000 342.000 143.000 C 341.417 143.000 341.000 139.682 341.000 135.047 C 341.000 121.294 339.279 119.738 323.457 119.184 C 314.398 118.867 312.183 119.074 311.134 120.338 "/></g>
<g fill="#223256FF" stroke="#223256FF">
<path d="M 198.839 157.750 C 198.790 161.463 198.698 169.000 198.635 174.500 C 198.532 183.468 198.544 183.546 198.760 175.250 L 199.000 166.000 204.445 166.000 L 209.890 166.000 210.195 161.250 L 210.500 156.500 229.000 156.216 C 239.175 156.059 248.513 156.180 249.750 156.485 C 251.674 156.958 252.000 157.700 252.000 161.601 L 252.000 166.163 248.632 164.082 C 246.365 162.681 243.586 162.000 240.132 162.000 C 235.325 162.000 235.000 161.842 235.000 159.500 C 235.000 157.136 234.700 157.000 229.500 157.000 C 224.932 157.000 223.999 157.296 223.992 158.750 C 223.986 159.964 220.236 162.490 211.742 167.000 L 199.500 173.500 208.777 173.788 L 218.053 174.076 226.302 169.579 L 234.551 165.083 242.025 169.552 C 249.296 173.899 249.705 174.013 257.000 173.760 L 264.500 173.500 258.500 170.000 L 252.500 166.500 257.500 166.190 C 260.250 166.020 262.884 165.500 263.354 165.036 C 264.829 163.578 262.883 155.792 260.430 153.340 L 258.091 151.000 228.509 151.000 L 198.928 151.000 198.839 157.750 "/></g>
<g fill="#223256FF" stroke="#223256FF">
<path d="M 484.000 123.500 L 484.000 127.000 468.940 127.000 L 453.879 127.000 454.190 130.750 L 454.500 134.500 469.275 134.777 L 484.051 135.054 483.775 150.777 L 483.500 166.500 480.243 166.814 C 477.832 167.046 476.597 167.878 475.493 170.014 C 474.672 171.602 474.000 173.148 474.000 173.450 C 474.000 173.753 477.755 174.000 482.345 174.000 C 494.544 174.000 494.420 174.215 494.814 152.398 L 495.129 135.000 497.564 135.000 C 499.739 135.000 500.000 134.572 500.000 131.000 C 500.000 127.400 499.750 127.000 497.500 127.000 C 495.310 127.000 495.000 126.567 495.000 123.500 L 495.000 120.000 489.500 120.000 L 484.000 120.000 484.000 123.500 "/></g>
<g fill="#223256FF" stroke="#223256FF">
<path d="M 438.060 128.614 C 435.839 133.352 434.269 137.627 434.570 138.114 C 434.872 138.601 436.441 139.000 438.059 139.000 L 441.000 139.000 441.000 156.500 L 441.000 174.000 447.000 174.000 L 453.000 174.000 453.000 152.500 C 453.000 131.712 452.934 131.000 451.013 131.000 C 449.083 131.000 449.096 130.839 451.458 125.500 L 453.890 120.000 447.993 120.000 L 442.096 120.000 438.060 128.614 "/></g>
<g fill="#223256FF" stroke="#223256FF">
<path d="M 164.985 121.750 C 164.973 123.070 164.765 123.177 164.136 122.185 C 163.598 121.337 161.751 120.982 158.937 121.185 C 154.905 121.476 154.521 121.748 153.912 124.750 L 153.253 128.000 159.126 128.000 C 163.681 128.000 165.000 128.337 165.000 129.500 C 165.000 130.667 163.667 131.000 159.000 131.000 C 153.209 131.000 153.000 131.090 153.000 133.594 C 153.000 135.346 153.649 136.357 155.000 136.710 C 157.449 137.351 157.450 137.198 154.980 142.040 L 152.959 146.000 157.993 146.000 C 162.968 146.000 163.051 145.948 165.212 141.500 C 166.862 138.104 167.963 137.000 169.699 137.000 C 171.278 137.000 172.000 137.585 172.000 138.865 C 172.000 139.891 172.933 141.916 174.073 143.365 C 175.817 145.583 176.935 146.000 181.140 146.000 C 185.851 146.000 186.097 145.872 185.466 143.750 C 185.099 142.513 184.168 141.000 183.399 140.390 C 181.420 138.819 181.664 137.321 184.000 136.710 C 185.351 136.357 186.000 135.346 186.000 133.594 C 186.000 131.117 185.753 131.000 180.500 131.000 C 176.278 131.000 175.000 130.652 175.000 129.500 C 175.000 128.367 176.222 128.000 180.000 128.000 C 184.667 128.000 185.000 127.833 185.000 125.500 C 185.000 123.167 184.667 123.000 180.000 123.000 C 176.222 123.000 175.000 122.633 175.000 121.500 C 175.000 120.367 173.778 120.000 170.000 120.000 C 165.911 120.000 164.997 120.319 164.985 121.750 "/></g>
<g fill="#223256FF" stroke="#223256FF">
<path d="M 126.354 120.734 C 122.055 121.037 121.111 121.460 120.618 123.299 C 119.447 127.663 119.789 128.000 125.393 128.000 C 129.264 128.000 130.948 128.423 131.362 129.500 C 131.834 130.730 130.863 131.000 125.969 131.000 C 120.003 131.000 120.000 131.002 120.000 134.000 C 120.000 136.286 120.455 137.000 121.909 137.000 C 123.788 137.000 123.788 137.063 121.909 140.952 C 120.859 143.125 120.000 145.150 120.000 145.452 C 120.000 145.753 122.160 146.000 124.801 146.000 C 129.500 146.000 129.648 145.905 131.788 141.500 C 134.366 136.193 137.384 135.402 138.470 139.750 C 139.638 144.432 141.817 146.000 147.155 146.000 C 152.596 146.000 153.468 144.468 150.000 141.000 C 148.900 139.900 148.000 138.550 148.000 138.000 C 148.000 137.450 148.900 137.000 150.000 137.000 C 151.556 137.000 152.000 136.333 152.000 134.000 C 152.000 131.030 151.944 131.000 146.500 131.000 C 142.278 131.000 141.000 130.652 141.000 129.500 C 141.000 128.367 142.222 128.000 146.000 128.000 C 150.667 128.000 151.000 127.833 151.000 125.500 C 151.000 123.167 150.667 123.000 146.000 123.000 C 142.222 123.000 141.000 122.633 141.000 121.500 C 141.000 119.953 138.935 119.845 126.354 120.734 "/></g>
<g fill="#223256FF" stroke="#223256FF">
<path d="M 123.000 156.550 L 123.000 165.100 128.750 164.800 L 134.500 164.500 134.802 159.250 L 135.105 154.000 153.000 154.000 L 170.895 154.000 171.198 159.250 L 171.500 164.500 176.750 164.802 L 182.000 165.105 182.000 158.625 C 182.000 152.816 181.727 151.931 179.365 150.073 C 176.848 148.093 175.530 148.000 149.865 148.000 L 123.000 148.000 123.000 156.550 "/></g>
<g fill="#223256FF" stroke="#223256FF">
<path d="M 146.939 157.750 C 146.883 160.275 145.759 161.046 133.189 167.182 L 119.500 173.864 129.657 173.932 C 138.834 173.993 140.448 173.715 146.395 171.047 L 152.977 168.094 159.365 171.083 C 165.341 173.880 166.410 174.054 175.963 173.786 L 186.173 173.500 177.837 170.246 C 171.382 167.727 167.919 166.978 162.500 166.929 C 156.723 166.876 155.893 166.675 157.750 165.780 C 159.625 164.875 160.000 163.886 160.000 159.847 L 160.000 155.000 153.500 155.000 C 147.091 155.000 146.999 155.038 146.939 157.750 "/></g>
<g fill="#223256FF" stroke="#223256FF">
<path d="M 458.641 139.772 C 458.378 140.197 459.610 145.710 461.378 152.022 L 464.593 163.500 469.546 163.500 C 475.397 163.500 475.330 164.272 470.784 149.250 L 467.683 139.000 463.400 139.000 C 461.045 139.000 458.903 139.348 458.641 139.772 "/></g>
<g fill="#223256FF" stroke="#223256FF">
<path d="M 309.000 160.500 L 309.000 165.072 318.750 164.786 L 328.500 164.500 328.500 160.500 L 328.500 156.500 318.750 156.214 L 309.000 155.928 309.000 160.500 "/></g>
<g fill="#FFFFFFFF" stroke="#FFFFFFFF">
<path d="M 292.000 152.500 C 292.000 165.333 292.099 166.000 294.000 166.000 C 295.901 166.000 296.000 165.333 296.000 152.500 C 296.000 139.667 295.901 139.000 294.000 139.000 C 292.099 139.000 292.000 139.667 292.000 152.500 "/></g>
<g fill="#FFFFFFFF" stroke="#FFFFFFFF">
<path d="M 219.638 132.500 C 219.140 133.798 221.411 134.000 236.500 134.000 C 251.589 134.000 253.860 133.798 253.362 132.500 C 252.883 131.252 250.054 131.000 236.500 131.000 C 222.946 131.000 220.117 131.252 219.638 132.500 "/></g>
<g fill="#4F80FEFF" stroke="#4F80FEFF">
<path d="M 404.667 186.667 C 403.607 187.727 403.895 198.817 405.000 199.500 C 405.583 199.861 406.000 198.844 406.000 197.059 C 406.000 194.343 406.329 194.000 408.929 194.000 C 411.716 194.000 415.000 191.837 415.000 190.000 C 415.000 187.089 406.868 184.466 404.667 186.667 "/></g>
<g fill="#FFFFFFFF" stroke="#FFFFFFFF">
<path d="M 212.500 142.000 C 212.096 142.654 218.637 143.000 231.382 143.000 C 243.303 143.000 251.122 142.611 251.500 142.000 C 251.904 141.346 245.363 141.000 232.618 141.000 C 220.697 141.000 212.878 141.389 212.500 142.000 "/></g>
<g fill="#4F80FEFF" stroke="#4F80FEFF">
<path d="M 421.573 187.083 C 421.302 187.862 420.173 190.948 419.064 193.940 C 417.955 196.933 417.221 199.554 417.432 199.766 C 417.644 199.977 418.114 199.217 418.476 198.075 C 419.407 195.142 425.947 195.082 426.710 198.000 C 426.998 199.100 427.597 200.000 428.042 200.000 C 428.962 200.000 424.497 188.097 423.026 186.626 C 422.412 186.012 421.888 186.177 421.573 187.083 M 424.538 192.250 C 425.153 194.742 424.962 195.000 422.501 195.000 C 420.308 195.000 419.924 194.664 420.506 193.250 C 420.903 192.288 421.461 190.683 421.747 189.684 C 422.389 187.445 423.634 188.590 424.538 192.250 "/></g>
<g fill="#4F80FEFF" stroke="#4F80FEFF">
<path d="M 364.667 186.667 C 364.300 187.033 364.085 190.296 364.189 193.917 L 364.378 200.500 364.739 194.750 C 364.937 191.588 365.432 189.000 365.839 189.000 C 366.245 189.000 368.077 191.475 369.911 194.500 C 371.744 197.525 373.639 200.000 374.122 200.000 C 374.605 200.000 374.915 196.738 374.811 192.750 C 374.629 185.759 374.609 185.705 374.261 191.250 C 374.063 194.413 373.578 197.000 373.184 197.000 C 372.790 197.000 370.987 194.525 369.178 191.500 C 365.669 185.634 365.684 185.650 364.667 186.667 "/></g>
<g fill="#4F80FEFF" stroke="#4F80FEFF">
<path d="M 310.966 188.064 C 309.507 190.790 311.012 192.592 315.439 193.423 C 318.837 194.060 320.070 195.454 319.269 197.750 C 318.594 199.687 312.275 199.301 311.080 197.250 C 310.519 196.288 310.047 195.973 310.030 196.550 C 309.933 199.926 317.629 201.357 320.070 198.416 C 321.873 196.243 320.264 193.934 315.933 192.483 C 313.645 191.716 312.393 190.610 312.180 189.166 C 311.913 187.352 312.352 187.000 314.881 187.000 C 316.702 187.000 318.305 187.695 318.920 188.750 C 319.824 190.302 319.943 190.314 319.970 188.857 C 320.032 185.509 312.680 184.861 310.966 188.064 "/></g>
<g fill="#4F80FEFF" stroke="#4F80FEFF">
<path d="M 380.920 189.328 L 383.025 193.156 381.012 195.983 C 378.174 199.968 378.513 201.107 381.464 197.500 L 383.918 194.500 386.423 197.500 C 389.481 201.162 389.825 200.035 386.870 196.038 L 384.740 193.157 386.955 189.328 L 389.169 185.500 386.585 188.500 L 384.000 191.500 381.408 188.500 L 378.816 185.500 380.920 189.328 "/></g>
<g fill="#4F80FEFF" stroke="#4F80FEFF">
<path d="M 300.750 186.732 C 303.088 186.943 305.000 187.386 305.000 187.717 C 305.000 188.048 303.200 190.702 301.000 193.616 C 298.800 196.530 297.000 199.158 297.000 199.457 C 297.000 199.756 299.363 199.921 302.250 199.825 C 307.269 199.658 307.313 199.634 303.250 199.268 C 300.913 199.057 299.000 198.636 299.000 198.331 C 299.000 198.027 300.800 195.628 303.000 193.000 C 305.200 190.372 307.000 187.722 307.000 187.111 C 307.000 186.415 305.038 186.065 301.750 186.175 C 296.731 186.342 296.687 186.366 300.750 186.732 "/></g>
<g fill="#4F80FEFF" stroke="#4F80FEFF">
<path d="M 324.168 193.167 L 324.336 200.500 324.956 194.500 C 325.552 188.725 325.621 188.606 326.788 191.315 C 327.454 192.863 328.000 194.297 328.000 194.500 C 328.000 196.444 330.224 199.980 331.105 199.435 C 331.736 199.045 331.821 198.481 331.304 198.125 C 330.803 197.781 329.477 195.049 328.356 192.053 C 325.344 184.002 323.966 184.369 324.168 193.167 "/></g>
<g fill="#4F80FEFF" stroke="#4F80FEFF">
<path d="M 334.623 187.540 C 333.676 190.008 334.018 191.786 335.000 189.500 C 335.604 188.095 335.880 189.420 335.930 193.950 C 335.979 198.471 336.315 200.085 337.054 199.346 C 338.426 197.974 337.842 186.771 336.373 186.287 C 335.753 186.083 334.966 186.646 334.623 187.540 "/></g>
<g fill="#4F80FEFF" stroke="#4F80FEFF">
<path d="M 209.000 132.500 C 209.000 133.605 210.153 134.000 213.378 134.000 C 216.049 134.000 218.240 133.415 219.000 132.500 C 220.081 131.197 219.507 131.000 214.622 131.000 C 210.291 131.000 209.000 131.345 209.000 132.500 "/></g>
<g fill="#4F80FEFF" stroke="#4F80FEFF">
<path d="M 358.750 186.577 C 357.580 187.757 357.848 200.000 359.044 200.000 C 359.698 200.000 359.978 197.356 359.794 192.911 C 359.632 189.011 359.163 186.161 358.750 186.577 "/></g>
<g fill="#4F80FEFF" stroke="#4F80FEFF">
<path d="M 433.409 190.178 C 434.834 192.751 436.052 196.126 436.115 197.678 C 436.221 200.290 436.286 200.239 436.982 197.000 C 437.396 195.075 438.582 191.781 439.617 189.680 L 441.500 185.859 439.059 189.585 C 436.765 193.088 436.543 193.197 435.353 191.406 C 432.197 186.655 431.059 185.936 433.409 190.178 "/></g>
<g fill="#FFFFFFFF" stroke="#FFFFFFFF">
<path d="M 406.000 190.000 C 406.000 191.556 406.667 192.000 409.000 192.000 C 411.333 192.000 412.000 191.556 412.000 190.000 C 412.000 188.444 411.333 188.000 409.000 188.000 C 406.667 188.000 406.000 188.444 406.000 190.000 "/></g>
<g fill="#4F80FEFF" stroke="#4F80FEFF">
<path d="M 347.196 192.750 L 347.000 200.000 351.250 199.832 L 355.500 199.664 351.794 199.274 L 348.089 198.885 347.740 192.192 L 347.392 185.500 347.196 192.750 "/></g>
<g fill="#223256FF" stroke="#223256FF">
<path d="M 348.000 191.844 L 348.500 198.500 352.250 198.450 C 355.899 198.401 355.905 198.395 352.500 198.200 L 349.000 198.000 349.000 192.059 C 349.000 188.791 348.663 185.909 348.250 185.653 C 347.838 185.397 347.725 188.183 348.000 191.844 "/></g>
<g fill="#223256FF" stroke="#223256FF">
<path d="M 363.417 186.355 C 363.131 187.101 363.059 190.588 363.256 194.105 L 363.615 200.500 363.807 193.333 C 363.932 188.692 364.440 185.989 365.250 185.662 C 366.229 185.267 366.222 185.141 365.219 185.079 C 364.514 185.036 363.703 185.610 363.417 186.355 "/></g>
<g fill="#223256FF" stroke="#223256FF">
<path d="M 323.417 186.355 C 323.131 187.101 323.059 190.588 323.256 194.105 L 323.615 200.500 323.807 193.333 C 323.932 188.692 324.440 185.989 325.250 185.662 C 326.229 185.267 326.222 185.141 325.219 185.079 C 324.514 185.036 323.703 185.610 323.417 186.355 "/></g>
<g fill="#223256FF" stroke="#223256FF">
<path d="M 302.655 185.902 C 306.041 186.231 308.602 186.163 308.346 185.750 C 308.091 185.338 305.321 185.069 302.191 185.152 L 296.500 185.305 302.655 185.902 "/></g>
<g fill="#B3C8FFFF" stroke="#B3C8FFFF">
<path d="M 325.083 195.500 C 324.891 198.800 325.046 200.764 325.430 199.864 C 325.813 198.965 325.970 196.265 325.780 193.864 C 325.468 189.927 325.400 190.087 325.083 195.500 "/></g>
<g fill="#FFFFFFFF" stroke="#FFFFFFFF">
<path d="M 422.015 189.668 C 422.007 190.311 421.727 191.548 421.393 192.418 C 420.995 193.456 421.338 194.000 422.393 194.000 C 423.277 194.000 423.993 193.438 423.985 192.750 C 423.965 191.129 422.036 188.110 422.015 189.668 "/></g>
<g fill="#223256FF" stroke="#223256FF">
<path d="M 303.773 198.733 C 306.545 198.982 307.808 199.502 307.368 200.213 C 306.958 200.877 307.153 201.024 307.862 200.585 C 310.044 199.237 307.902 197.999 303.691 198.175 L 299.500 198.349 303.773 198.733 "/></g>
<g fill="#223256FF" stroke="#223256FF">
<path d="M 312.552 187.915 C 312.216 188.459 313.105 188.494 314.743 188.001 C 317.094 187.294 317.177 187.159 315.309 187.086 C 314.104 187.039 312.863 187.412 312.552 187.915 "/></g>
</svg>
